HIERARCHY
ROOT Hips
{
    OFFSET   0.000000   0.000000   0.000000
    CHANNELS 6 Xposition Yposition Zposition Zrotation Xrotation Yrotation
    JOINT Chest
    {
        OFFSET   0.000000   8.007230   0.000000
        CHANNELS 3 Zrotation Xrotation Yrotation
        JOINT Chest2
        {
            OFFSET   0.000000  22.077100   0.000000
            CHANNELS 3 Zrotation Xrotation Yrotation
            JOINT Neck
            {
                OFFSET   0.000000  23.254800  -0.000021
                CHANNELS 3 Zrotation Xrotation Yrotation
                JOINT Head
                {
                    OFFSET   0.000000  14.370000   1.956610
                    CHANNELS 3 Zrotation Xrotation Yrotation
                    End Site
                    {
                        OFFSET   0.000000  19.566000   0.000000
                    }
                }
            }
            JOINT LeftCollar
            {
                OFFSET   3.911900  19.017000  -0.467063
                CHANNELS 3 Zrotation Xrotation Yrotation
                JOINT LeftShoulder
                {
                    OFFSET  10.383700   0.000000   0.000000
                    CHANNELS 3 Zrotation Xrotation Yrotation
                    JOINT LeftElbow
                    {
                        OFFSET  26.662100   0.001529   0.000325
                        CHANNELS 3 Zrotation Xrotation Yrotation
                        JOINT LeftWrist
                        {
                            OFFSET  28.869000  -0.000011  -0.000096
                            CHANNELS 3 Zrotation Xrotation Yrotation
                            JOINT LeftFinger0
                            {
                                OFFSET   2.044650  -2.323460   3.252850
                                CHANNELS 3 Zrotation Xrotation Yrotation
                                JOINT LeftFinger01
                                {
                                    OFFSET   3.088130   0.000000   0.000000
                                    CHANNELS 3 Zrotation Xrotation Yrotation
                                    JOINT LeftFinger02
                                    {
                                        OFFSET   2.639460   0.000000   0.000000
                                        CHANNELS 3 Zrotation Xrotation Yrotation
                                        End Site
                                        {
                                            OFFSET   2.582190   0.000000   0.000000
                                        }
                                    }
                                }
                            }
                            JOINT LeftFinger1
                            {
                                OFFSET   8.364480   0.000000   3.252850
                                CHANNELS 3 Zrotation Xrotation Yrotation
                                JOINT LeftFinger11
                                {
                                    OFFSET   4.646930   0.000000   0.000000
                                    CHANNELS 3 Zrotation Xrotation Yrotation
                                    JOINT LeftFinger12
                                    {
                                        OFFSET   2.323460   0.000000   0.000000
                                        CHANNELS 3 Zrotation Xrotation Yrotation
                                        End Site
                                        {
                                            OFFSET   2.273050   0.000000   0.000000
                                        }
                                    }
                                }
                            }
                            JOINT LeftFinger2
                            {
                                OFFSET   8.364480   0.000016   1.078090
                                CHANNELS 3 Zrotation Xrotation Yrotation
                                JOINT LeftFinger21
                                {
                                    OFFSET   5.111620   0.000000   0.000000
                                    CHANNELS 3 Zrotation Xrotation Yrotation
                                    JOINT LeftFinger22
                                    {
                                        OFFSET   2.788160   0.000017   0.000000
                                        CHANNELS 3 Zrotation Xrotation Yrotation
                                        End Site
                                        {
                                            OFFSET   2.727660   0.000000   0.000000
                                        }
                                    }
                                }
                            }
                            JOINT LeftFinger3
                            {
                                OFFSET   7.899780   0.000015  -1.078090
                                CHANNELS 3 Zrotation Xrotation Yrotation
                                JOINT LeftFinger31
                                {
                                    OFFSET   4.646920   0.000000   0.000000
                                    CHANNELS 3 Zrotation Xrotation Yrotation
                                    JOINT LeftFinger32
                                    {
                                        OFFSET   2.323470   0.000000   0.000000
                                        CHANNELS 3 Zrotation Xrotation Yrotation
                                        End Site
                                        {
                                            OFFSET   2.273050   0.000000   0.000000
                                        }
                                    }
                                }
                            }
                            JOINT LeftFinger4
                            {
                                OFFSET   7.435090   0.000000  -3.252850
                                CHANNELS 3 Zrotation Xrotation Yrotation
                                JOINT LeftFinger41
                                {
                                    OFFSET   3.717550   0.000000   0.000000
                                    CHANNELS 3 Zrotation Xrotation Yrotation
                                    JOINT LeftFinger42
                                    {
                                        OFFSET   1.858760   0.000000   0.000000
                                        CHANNELS 3 Zrotation Xrotation Yrotation
                                        End Site
                                        {
                                            OFFSET   1.818440   0.000000   0.000000
                                        }
                                    }
                                }
                            }
                        }
                    }
                }
            }
            JOINT RightCollar
            {
                OFFSET  -3.911900  19.017000  -0.467062
                CHANNELS 3 Zrotation Xrotation Yrotation
                JOINT RightShoulder
                {
                    OFFSET -10.383700   0.000015   0.000000
                    CHANNELS 3 Zrotation Xrotation Yrotation
                    JOINT RightElbow
                    {
                        OFFSET -26.662100   0.001341   0.000385
                        CHANNELS 3 Zrotation Xrotation Yrotation
                        JOINT RightWrist
                        {
                            OFFSET -28.869000   0.000025  -0.000080
                            CHANNELS 3 Zrotation Xrotation Yrotation
                            JOINT RightFinger0
                            {
                                OFFSET  -2.044650  -2.323490   3.252850
                                CHANNELS 3 Zrotation Xrotation Yrotation
                                JOINT RightFinger01
                                {
                                    OFFSET  -3.088130   0.000000   0.000000
                                    CHANNELS 3 Zrotation Xrotation Yrotation
                                    JOINT RightFinger02
                                    {
                                        OFFSET  -2.639460   0.000000   0.000000
                                        CHANNELS 3 Zrotation Xrotation Yrotation
                                        End Site
                                        {
                                            OFFSET  -2.582190   0.000000   0.000000
                                        }
                                    }
                                }
                            }
                            JOINT RightFinger1
                            {
                                OFFSET  -8.364480   0.000000   3.252850
                                CHANNELS 3 Zrotation Xrotation Yrotation
                                JOINT RightFinger11
                                {
                                    OFFSET  -4.646930   0.000000   0.000000
                                    CHANNELS 3 Zrotation Xrotation Yrotation
                                    JOINT RightFinger12
                                    {
                                        OFFSET  -2.323470   0.000000   0.000000
                                        CHANNELS 3 Zrotation Xrotation Yrotation
                                        End Site
                                        {
                                            OFFSET  -2.273050   0.000000   0.000000
                                        }
                                    }
                                }
                            }
                            JOINT RightFinger2
                            {
                                OFFSET  -8.364480   0.000000   1.078090
                                CHANNELS 3 Zrotation Xrotation Yrotation
                                JOINT RightFinger21
                                {
                                    OFFSET  -5.111610   0.000000   0.000000
                                    CHANNELS 3 Zrotation Xrotation Yrotation
                                    JOINT RightFinger22
                                    {
                                        OFFSET  -2.788160   0.000000   0.000000
                                        CHANNELS 3 Zrotation Xrotation Yrotation
                                        End Site
                                        {
                                            OFFSET  -2.727660   0.000000   0.000000
                                        }
                                    }
                                }
                            }
                            JOINT RightFinger3
                            {
                                OFFSET  -7.899780   0.000000  -1.078090
                                CHANNELS 3 Zrotation Xrotation Yrotation
                                JOINT RightFinger31
                                {
                                    OFFSET  -4.646920   0.000000   0.000000
                                    CHANNELS 3 Zrotation Xrotation Yrotation
                                    JOINT RightFinger32
                                    {
                                        OFFSET  -2.323470   0.000000   0.000000
                                        CHANNELS 3 Zrotation Xrotation Yrotation
                                        End Site
                                        {
                                            OFFSET  -2.273050   0.000000   0.000000
                                        }
                                    }
                                }
                            }
                            JOINT RightFinger4
                            {
                                OFFSET  -7.435090   0.000000  -3.252850
                                CHANNELS 3 Zrotation Xrotation Yrotation
                                JOINT RightFinger41
                                {
                                    OFFSET  -3.717550   0.000000   0.000000
                                    CHANNELS 3 Zrotation Xrotation Yrotation
                                    JOINT RightFinger42
                                    {
                                        OFFSET  -1.858770   0.000000   0.000000
                                        CHANNELS 3 Zrotation Xrotation Yrotation
                                        End Site
                                        {
                                            OFFSET  -1.818440   0.000000   0.000000
                                        }
                                    }
                                }
                            }
                        }
                    }
                }
            }
        }
    }
    JOINT LeftHip
    {
        OFFSET   9.783010   0.000000   0.000000
        CHANNELS 3 Zrotation Xrotation Yrotation
        JOINT LeftKnee
        {
            OFFSET   0.000070 -41.789100   0.000028
            CHANNELS 3 Zrotation Xrotation Yrotation
            JOINT LeftAnkle
            {
                OFFSET   0.000087 -41.133200  -0.000100
                CHANNELS 3 Zrotation Xrotation Yrotation
                JOINT LeftToe
                {
                    OFFSET   0.000000  -6.358960  14.674500
                    CHANNELS 3 Zrotation Xrotation Yrotation
                    End Site
                    {
                        OFFSET   0.000000   0.000000   3.913200
                    }
                }
            }
        }
    }
    JOINT RightHip
    {
        OFFSET  -9.783020   0.000000   0.000000
        CHANNELS 3 Zrotation Xrotation Yrotation
        JOINT RightKnee
        {
            OFFSET   0.000044 -41.789100  -0.000870
            CHANNELS 3 Zrotation Xrotation Yrotation
            JOINT RightAnkle
            {
                OFFSET  -0.000090 -41.133200  -0.000245
                CHANNELS 3 Zrotation Xrotation Yrotation
                JOINT RightToe
                {
                    OFFSET   0.000000  -6.358960  14.674500
                    CHANNELS 3 Zrotation Xrotation Yrotation
                    End Site
                    {
                        OFFSET   0.000000   0.000000   3.913200
                    }
                }
            }
        }
    }
}
MOTION
Frames: 4
Frame Time:   0.016667
 -0.656113  89.442900   0.505787  -1.419130  -0.769751   0.932819   1.279040   1.892990  -0.872666   2.588900   3.765790  -1.788880  -0.925828   0.431346   0.008372  -1.520360   0.874191   5.300920  -4.766890   2.896710   9.999320 -79.528800   7.901230   1.723680  -0.614510   0.998731 -13.755000  13.273800  -6.360830  -2.172660  39.631900  30.762000 -50.935200 -30.702700   0.001749   0.001091 -10.351400   0.000000   0.000311 -25.850000  -0.118686   0.263910 -21.150300  -0.000989   0.001373 -14.805200  -0.000916   0.000947 -28.220700  -4.055230   7.528170 -36.059700   0.000128  -0.003200 -24.015800  -0.001623   0.001647 -27.054200  -3.903690   7.609910 -28.329900  -0.001734   0.000318 -18.867600  -0.001154  -0.000905 -29.502800  -6.472960  11.267800 -45.213000  -0.002206  -0.002358 -30.111800  -0.000976   0.002969   6.186160   4.759180   8.297530  72.542900  -5.215030  -2.275990   5.302910  -6.426020  10.362600 -26.391400   4.821470   2.354810 -41.245200  33.780400  75.063800  17.681400   0.002203  -0.004798   3.840720   0.003635  -0.002481  28.395300  -0.255984  -0.473343  23.233400  -0.001362  -0.002229  16.263400  -0.000174  -0.000191  27.558500  -0.248984  -0.477063  29.498000   0.003794  -0.001314  19.645700  -0.005751  -0.000058  27.343100  -0.247192  -0.477994  28.467900  -0.005451   0.001686  18.959600   0.001457   0.005916  30.325400  -0.271759  -0.464467  45.490000  -0.004277   0.009848  30.296400   0.000140   0.000521   4.100780   3.302080  -1.561370  -0.279907   0.078072  13.311100  -2.688120  -2.535020   1.670060   0.000000   0.000000  -0.000000  -1.516730   3.466300  -4.497710   0.867177   0.430938 -10.998200   0.755553  -2.396400  -1.583110  -0.000000   0.000000   0.000000
 -0.656082  89.442800   0.505864  -1.418490  -0.807753   0.931751   1.279040   1.916000  -0.871453   2.589250   3.811830  -1.786990  -0.925825   0.443989   0.008391  -1.520690   0.899999   5.318810  -4.771810   2.888530   9.996350 -79.521300   7.927250   1.716840  -0.615870   0.994135 -13.755000  13.289200  -6.365520  -2.159520  39.624300  30.758200 -50.934500 -30.712400   0.001733   0.001082 -10.356200   0.000000   0.000317 -25.875800  -0.118686   0.254018 -21.171400  -0.000974   0.001360 -14.820000  -0.000905   0.000953 -28.225300  -4.055210   7.522960 -36.086500   0.000139  -0.003205 -24.033600  -0.001605   0.001654 -27.060200  -3.903740   7.604310 -28.356200  -0.001711   0.000309 -18.885200  -0.001138  -0.000900 -29.515900  -6.479310  11.272600 -45.234000  -0.002189  -0.002352 -30.125900  -0.000965   0.002981   6.187200   4.752690   8.295250  72.537300  -5.182390  -2.275870   5.303920  -6.437160  10.353900 -26.409100   4.813870   2.364050 -41.231500  33.774300  75.064900  17.690200   0.002200  -0.004802   3.845120   0.003631  -0.002486  28.422500  -0.204569  -0.378213  23.255200  -0.001363  -0.002232  16.278700  -0.000173  -0.000191  27.564400  -0.198963  -0.381193  29.525100   0.003795  -0.001315  19.663700  -0.005752  -0.000063  27.350200  -0.197532  -0.381936  28.498000  -0.005453   0.001680  18.979700   0.001458   0.005914  30.343300  -0.217178  -0.371117  45.515900  -0.004281   0.009847  30.313600   0.000134   0.000511   4.102280   3.350800  -1.561550  -0.279992   0.052349  13.311100  -2.685060  -2.522380   1.670650  -0.000000   0.000000   0.000000  -1.513710   3.506810  -4.497910   0.861478   0.425374 -10.998000   0.754655  -2.391480  -1.582370   0.000000   0.000000   0.000000
 -0.656052  89.442800   0.505996  -1.417370  -0.875014   0.927682   1.279060   1.955750  -0.868912   2.589880   3.891350  -1.782850  -0.925825   0.466134   0.008410  -1.523010   0.944997   5.348060  -4.779850   2.875270   9.989340 -79.509300   7.970030   1.706690  -0.618038   0.986238 -13.754900  13.304200  -6.377100  -2.146410  39.609200  30.747100 -50.932700 -30.729600   0.001702   0.001068 -10.364800   0.000000   0.000326 -25.939300  -0.118687   0.244127 -21.223300  -0.000937   0.001329 -14.856300  -0.000876   0.000970 -28.232800  -4.055230   7.514420 -36.139000   0.000167  -0.003217 -24.068600  -0.001561   0.001671 -27.071200  -3.903820   7.595140 -28.404700  -0.001655   0.000289 -18.917500  -0.001099  -0.000888 -29.539600  -6.489610  11.279400 -45.271700  -0.002146  -0.002333 -30.151000  -0.000940   0.003007   6.189650   4.738980   8.288630  72.528600  -5.126900  -2.275680   5.306050  -6.454420  10.345400 -26.427300   4.795720   2.385710 -41.207600  33.762400  75.061600  17.706300   0.002193  -0.004807   3.853150   0.003628  -0.002494  28.468100  -0.119785  -0.221380  23.292000  -0.001366  -0.002239  16.304400  -0.000171  -0.000193  27.573700  -0.116484  -0.223134  29.569200   0.003796  -0.001319  19.693100  -0.005754  -0.000079  27.361700  -0.115647  -0.223569  28.548100  -0.005460   0.001661  19.013000   0.001461   0.005907  30.372600  -0.127171  -0.217221  45.558900  -0.004292   0.009846  30.342200   0.000118   0.000485   4.104700   3.433130  -1.561850  -0.280280   0.016966  13.311200  -2.680720  -2.504610   1.671230   0.000000   0.000000  -0.000000  -1.508260   3.578020  -4.498260   0.852205   0.416080 -10.997800   0.753246  -2.383880  -1.577740  -0.000000   0.000000   0.000000
 -0.659505  89.442800   0.506107  -1.416380  -0.937115   0.919809   1.279020   1.990840  -0.865536   2.590200   3.961600  -1.776930  -0.928245   0.486851   0.008386  -1.527920   0.986548   5.366030  -4.785720   2.865650   9.976190 -79.499000   8.004660   1.701670  -0.618733   0.977640 -13.752400  13.301700  -6.400050  -2.146870  39.586900  30.726000 -50.926600 -30.750000   0.001672   0.001064 -10.375000   0.000000   0.000327 -26.064200  -0.120959   0.247568 -21.325600  -0.000884   0.001281 -14.927900  -0.000831   0.000994 -28.239900  -4.055460   7.506300 -36.215000   0.000209  -0.003237 -24.119300  -0.001493   0.001697 -27.085100  -3.903910   7.586460 -28.466800  -0.001571   0.000262 -18.958900  -0.001041  -0.000869 -29.567100  -6.499040  11.282200 -45.313200  -0.002078  -0.002298 -30.178600  -0.000903   0.003042   6.193260   4.722240   8.274600  72.523800  -5.078470  -2.278060   5.310020  -6.465300  10.348100 -26.420600   4.766020   2.418150 -41.195500  33.746300  75.046900  17.721400   0.002186  -0.004808   3.860680   0.003638  -0.002501  28.513900  -0.037732  -0.069690  23.329400  -0.001372  -0.002249  16.330500  -0.000167  -0.000195  27.580900  -0.036679  -0.070248  29.606400   0.003800  -0.001324  19.717500  -0.005759  -0.000103  27.372500  -0.036417  -0.070386  28.595300  -0.005471   0.001632  19.044500   0.001465   0.005898  30.400800  -0.040054  -0.068382  45.600900  -0.004310   0.009843  30.370200   0.000092   0.000447   4.106600   3.503450  -1.562150  -0.281008   0.004049  13.317400  -2.678700  -2.496780   1.669520   0.000000   0.000000   0.000000  -1.502330   3.644220  -4.497660   0.845088   0.406722 -11.002000   0.752402  -2.378030  -1.566770   0.000000   0.000000   0.000000
